<svg width="24" height="24" viewBox="0 0 24 24" fill="none" xmlns="http://www.w3.org/2000/svg">
<path d="M22.0001 16.92V19.92C22.0012 20.1985 21.9441 20.4742 21.8326 20.7294C21.721 20.9846 21.5574 21.2136 21.3521 21.4019C21.1469 21.5902 20.9046 21.7335 20.6408 21.8227C20.377 21.912 20.0974 21.9451 19.8201 21.92C16.7429 21.5857 13.7871 20.5342 11.1901 18.85C8.77388 17.3147 6.72539 15.2662 5.19006 12.85C3.50003 10.2412 2.4483 7.27103 2.12006 4.18004C2.09507 3.9035 2.12793 3.6248 2.21656 3.36166C2.30518 3.09852 2.44763 2.85673 2.63482 2.65166C2.82202 2.44659 3.04986 2.28275 3.30385 2.17056C3.55783 2.05837 3.8324 2.0003 4.11006 2.00004H7.11006C7.59536 1.99526 8.06585 2.16711 8.43382 2.48357C8.80179 2.80002 9.04213 3.23948 9.11005 3.72004C9.23668 4.6801 9.47151 5.62276 9.81006 6.53004C9.9446 6.88796 9.97372 7.27695 9.89396 7.65092C9.81421 8.02488 9.62892 8.36815 9.36005 8.64004L8.09006 9.91004C9.51361 12.4136 11.5865 14.4865 14.0901 15.91L15.3601 14.64C15.6319 14.3712 15.9752 14.1859 16.3492 14.1061C16.7231 14.0264 17.1121 14.0555 17.4701 14.19C18.3773 14.5286 19.32 14.7634 20.2801 14.89C20.7658 14.9586 21.2095 15.2032 21.5266 15.5775C21.8437 15.9518 22.0122 16.4296 22.0001 16.92Z" stroke="#69B99D" stroke-width="2" stroke-linecap="round" stroke-linejoin="round"/>
</svg>
